<svg width="34" height="38" viewBox="0 0 34 38" fill="none" xmlns="http://www.w3.org/2000/svg">
<path fill-rule="evenodd" clip-rule="evenodd" d="M16.7945 0C21.4789 0 25.2658 8.51505 25.2658 19C25.2658 29.5061 21.4789 38 16.7945 38C12.1102 38 8.32324 29.5061 8.32324 19C8.32324 8.51505 12.1102 0 16.7945 0ZM16.7945 15.8863C18.5676 15.8863 20.0123 17.2843 20.0123 19C20.0123 20.7369 18.5676 22.1349 16.7945 22.1349C15.0215 22.1349 13.5768 20.7369 13.5768 19C13.5768 17.2843 15.0215 15.8863 16.7945 15.8863Z" fill="#FEFEFE" fill-opacity="0.54902"/>
<path fill-rule="evenodd" clip-rule="evenodd" d="M0.727505 8.1126C3.41993 4.38462 12.7887 6.24861 21.654 12.2642C30.5193 18.301 35.532 26.1806 32.8615 29.9086C30.1691 33.6154 20.8003 31.7514 11.935 25.7358C3.04781 19.7202 -1.96492 11.8194 0.727505 8.1126ZM16.7945 15.8863C18.5676 15.8863 20.0123 17.2843 20.0123 19C20.0123 20.7369 18.5676 22.1349 16.7945 22.1349C15.0214 22.1349 13.5767 20.7369 13.5767 19C13.5767 17.2843 15.0214 15.8863 16.7945 15.8863Z" fill="#FEFEFE" fill-opacity="0.54902"/>
<path fill-rule="evenodd" clip-rule="evenodd" d="M0.727505 29.9086C-1.96492 26.1806 3.04781 18.301 11.935 12.2642C20.8003 6.24861 30.1691 4.38462 32.8615 8.1126C35.532 11.8194 30.5193 19.7202 21.654 25.7358C12.7887 31.7514 3.41993 33.6154 0.727505 29.9086ZM16.7945 15.8863C18.5676 15.8863 20.0123 17.2843 20.0123 19C20.0123 20.7369 18.5676 22.1349 16.7945 22.1349C15.0214 22.1349 13.5767 20.7369 13.5767 19C13.5767 17.2843 15.0214 15.8863 16.7945 15.8863Z" fill="#FEFEFE" fill-opacity="0.54902"/>
</svg>
